<?xml version="1.0" encoding="UTF-8"?><svg id="_Слой_1" xmlns="http://www.w3.org/2000/svg" viewBox="0 0 1107.79 284.58"><defs><style>.cls-1{fill:#f29220;}.cls-2{fill:#e21f26;}.cls-3{fill:#2e3192;}</style></defs><g><path class="cls-2" d="m378.34,176.97c7.88,2.63,16.26,3.95,25.15,3.95s17.2-1.33,25.26-3.95c5.87-1.87,11.55-4.5,17.02-7.91,12.55-7.74,22.53-18.12,29.43-31.13l3.03-5.8-28.35-16.03-3.26,6.17c-4.25,7.98-10.07,14.41-17.81,19.11-7.74,4.73-16.16,6.99-25.32,6.99-7.89,0-15.32-1.62-22.2-5.2l70.16-61.86,23.76-20.98-3.02-4.87c-7.2-11.39-17.18-20.21-28.9-26.79-8.58-4.87-17.74-8.14-27.33-9.53-4.03-.7-8.2-1.01-12.47-1.01-2.14,0-4.25.08-6.34.22-19.51,1.4-36.55,9.37-50.88,23.48-16.02,15.8-24.15,35.16-24.15,57.7,0,13.06,2.87,25.01,8.35,35.85,3.97,7.73,9.25,14.86,15.74,21.44,9.51,9.53,20.2,16.27,32.13,20.15m-23.09-85.05v-.06c1.42-10.29,5.75-19.34,13.48-27.08,1.33-1.31,2.72-2.58,4.11-3.71h.08c8.75-7.13,18.91-10.39,30.58-10.39,9.37,0,17.89,2.31,25.64,7.13l-70.08,62.18c-2.93-6.44-4.32-13.25-4.32-20.43,0-2.67.15-5.14.52-7.63"/><path class="cls-2" d="m81.47,18.21c-20.61,0-38.47,6.95-53.58,20.28-1.24,1.08-2.49,2.24-3.72,3.42C8.16,57.71,0,77.04,0,99.56s8.38,41.51,24.1,57.31c10.83,10.85,23.3,18.2,37.32,21.69,6.43,1.52,13.07,2.4,20.05,2.4s13.8-.78,20.12-2.4c1.79-.4,3.56-.94,5.29-1.48.66-.24,1.36-.48,2.07-.77h.09c9.6-3.43,18.34-8.76,26.4-15.95l25.1,18.2,2.3,1.71V18.1l-27.47,20.68c-15.17-13.63-33.22-20.58-53.89-20.58m34.61,115.99c-7.51,7.42-16.11,11.92-25.94,13.52-2.79.5-5.65.71-8.67.71-13.62,0-25.16-4.49-34.77-14.09-9.67-9.59-14.1-21.21-14.1-34.77,0-12.38,3.75-23.13,11.78-32.2.7-.87,1.48-1.7,2.32-2.56,9.61-9.68,21.16-14.09,34.77-14.09s25.02,4.65,34.61,14.26c9.61,9.6,14.24,21.05,14.24,34.6s-4.63,25.02-14.24,34.63"/><path class="cls-2" d="m274.61,180.68h32.57v-95.59c0-17.36-5.94-32.53-18.22-44.85-12.33-12.32-27.52-18.22-44.9-18.22-15.3,0-28.97,4.78-40.42,14.72l-22.66-18.36v162.3h32.57v-95.59c0-8.48,2.87-15.6,8.89-21.63,6.01-6.02,13.15-8.9,21.63-8.9s15.66,2.74,21.75,8.62c6.18,6.02,8.8,13.38,8.8,21.91v95.59Z"/><polygon class="cls-2" points="614.39 180.87 561.67 88.02 601.25 18.19 562.72 18.19 542.22 54.28 521.73 18.19 483.13 18.19 523.11 88.05 470 180.87 508.59 180.87 542.22 121.77 575.81 180.87 614.39 180.87"/><path class="cls-3" d="m671.63,45.24h-.05V0l-32.64,14.23v31.08h-24.36v30.64h24.36v43.85h.04v17.23c0,16.73,5.66,31.45,17.61,43.3.73.71,1.5,1.38,2.26,2.07l5.76,5.2,20.73-25.98-5.11-4.58c-.05-.06-.11-.13-.2-.2-5.7-5.41-8.39-11.94-8.39-19.82v-61.08h23.96v-30.64h-23.96v-.06Z"/><path class="cls-2" d="m864.17,90.9l1.58-.59c-1.29-3.06-1.75-6.13-2.54-9.13-.83-2.97-1.96-5.9-4.45-8.16.32-1.8-.18-4.48-.89-5.94-2.17-1.38-2.4-2.15-5.05-2.4-.5-.61.41-1.64.77-2.21-.92-2.55-.45-6.1-3.9-6.36l1.12-.92c-2.45-.96-5.61-2.24-5.94-5.09-1.39.32-3.32-1.1-3.8.77-.84-.45,1.31-2-.41-1.7l2.08-.74c-3.21-4.23-7.29-6.61-11.99-8.77.2-2.86-4.11-2.61-5.89-5.23-2.1.24-3.88-2.82-6.31-.65l.52-1.31c-1.98-1.15-4.77-2.36-7.36-3.98-1.56-.93-2.19,1.05-3.7,1.36l.32-1.38c-1.62.42-2.5,2.26-3.33,3.49-.01-.01-.04-.01-.04-.01-.08-.14-.24-.13-.4-.14-.6-.57-.99-.09-1.72-1.1,1.22-.52,2.45-1.77,3.61-3.39-1.64-1.08-4.17,2.04-4.82-.32-1.47-.8-2.77-.42-3.14,1.44.42-.57-.82-1.25.17-1.95-1.11-.11-1.81.04-2.52.64.18.08.41.26.61.24-.64,1.17-1.48,1.26-1.68,2.69-.42-.13-.84-.13-1.34-.13.04-1.22,1.36-1.96.69-2.84-.96.91-1.81,1.84-2.69,2.78-1.63-.24-3.28-.26-4.94-.26-7.5,0-14.5,1.1-21.1,3.21h-.06c2.07-1.49,4.67-1.85,7.14-2.12,3.14-.36,5.98-.68,8.45-3.48,4.05-1.62,5.53-7.4,5.53-7.4-5.53,1.07-10.63,1.47-15.94,1.81-5.32.28-10.83.55-16.78,1.48-3.46,1.98-7.42,5.11-10.93,6.25-3.07,2.18-6.17,4.2-9.21,6.39l-2.3,1.63-2.32,1.72-.96.7-.24.2-.1.1-.05.05-.08.04-.13.11-.55.42c-.71.6-1.43,1.21-2.19,1.84-5.74,4.9-11.07,11.08-13.82,18.63,1.07-.41,1.62.92,1.58,1.75l-.66-.09.78,1.72c-.36,1.1-1.82-.15-1.62-1.13-2.7,5.66-3.9,11.18-5.64,16.9,2.01.84-.51,3.06,1.64,3.7-.47.15-.52-.1-.91-.34.38,4.23.5,4.4-2.65,7.88-.18.97-.36,1.96-.5,2.92-.13.98-.25,2.19-.34,3.11l-.06,1.25-.11,1.58v2.98c.06,3.99.48,8,1.29,11.94,1.57,7.94,4.48,15.57,8.06,22.85,4.08,7.22,9.4,13.22,15.34,18.48,5.71,5.05,12.33,9.67,19.46,13.47,1.96-.84,3.4-.56,4.88-.2,1.56.28,3.06.65,4.97-.15l-.61.89c2.82-.46,2.61,1.44,5.14,3.7.42-1.15,1.2.06,1.45-1.95,1.45-1.33.91,3.23,2.73,2.83-.18.69.25-1.17.41-.47,2.23-.65,1.93-.43,1.68.33-.27.79-.54,2.14,1.8,3.65,7.29.84,14.65-.77,21.22.2-.43.11-.66-1.47,0-1.54.78,3.21,2.17-.98,3.39.23-.01.64-.55.89-.84,1.21,3.23,1.11,5.52-1.17,8.62-.25,1.16-.84,2.54-.89,3.88-.89,1.59.03,3.11.04,3.84-1.13-.06,1.39,1.52.59,2.28,1.01.4-2.16,1.8-2.26,3.34-2.3,1.54-.04,3.26-.04,3.9-1.75l.2.64c3.52-1.67,7.18-3.44,10.62-5.66,3.46-2.23,6.59-4.91,9-8.16,1.44-1.58,3.85-2.81,5.83-3.99,2.1-1.28,4.14-2.87,5.06-5.3.2-1.02-.92-.99-.71-1.81.78-.88.92.79,1.53.68.29-2.79,3.71-4.22,5.37-6.89-.31-.62-.03-1.44-.94-1.68,2.01-.73,2.84-2.63,3.55-4.57.68-1.93,1.21-3.93,2.77-5.09-3.52-.27-.83-2.61-1.12-4,.38-.57,1.25-.33,1.77.08.51-2.54.85-3.88,2.61-6.59,0-1.49-1.64-2.3-.78-3.81,2.55-.56.82-3.47,1.93-4.92-2.01.05-3.3-2.23-2.24-3.67l2.75.8c-1.15-5.3,2.21-12.88-1.93-18.72m-146.12,20.9s.05-.1.06-.15c0,.31.03.6.11.92-.23-.18-.33-.41-.18-.77m78.28-81.69c-.01.06-.08.1-.1.17h-.03c-.19-.09-.45-.14-.66-.09.22-.17.42-.23.79-.08m-7.77,21.78c11.97.42,22.91,4.92,31.42,12.19.11.09.22.19.32.28,10.84,9.4,17.72,23.23,17.72,38.7,0,2.46-.23,4.88-.59,7.26-.01.13-.03.25-.05.4-.25,1.71-.6,3.38-1.02,5.05-.08.27-.14.55-.22.83-.05.18-.09.36-.14.55-.03.1-.05.19-.08.29-.85,2.93-1.98,5.74-3.32,8.43-.14.26-.26.54-.4.8h-.01c-.09.19-.15.36-.24.52-.85,1.58-1.77,3.12-2.79,4.62-.85,1.26-1.77,2.5-2.74,3.69-.25.31-.54.59-.78.88-.25.29-.54.57-.79.87-1.07,1.19-2.19,2.33-3.37,3.42-.33.31-.66.62-.99.91-.2.17-.4.37-.6.55-.18.14-.33.32-.52.46-8.86,7.35-20.24,11.76-32.63,11.76-28.35,0-51.26-22.98-51.26-51.26,0-14.13,5.71-26.92,14.96-36.19.06-.08.15-.14.24-.24,4.09-4.05,8.89-7.38,14.17-9.87,1.1-.52,2.22-1.02,3.35-1.45,1.15-.45,2.31-.89,3.49-1.26.77-.23,1.57-.41,2.36-.6.27-.09.55-.14.83-.22,3.81-.91,7.77-1.43,11.86-1.43.61,0,1.21.08,1.81.09m-26.2-19.57c.83-.79,1.19.46,1.52,1.19h-.08c-1.21.33-2.45.79-3.56,1.2-.05,0-.13.05-.17.08.84-.73,1.63-1.53,2.28-2.46m-30.85,21.96c.47.08.55.51.83.92.05-1.87,1.56-2.67,2.74-3.42,1.24-.82,2.19-1.67,1.44-4.02l-.69-1.87c.98.04,1.87,1.01,2.7,1.1-.39-1.33,1.8-2.09,1.02-3.58.74.38.54.85.91,1.25,1.28-.61.77-3.72,2.26-4.09l.18.94c3.38-.88,6.94-1.77,10.18-2.92-.11,0-.11.13-.23.13h-.1c-.11,0-.11.09-.24.09h-.09s-.1.15-.23.15c-5.1,2.74-9.96,6.5-14.47,11.02-2.88,2.89-5.56,5.88-7.75,8.98.68-1.5,1.25-3.05,1.56-4.67m-7.31,14.07c-.22.13-.23.24-.23.45-.2-.29-.45-.59-.8-.84.32.01.69.2,1.03.4m-5.85,17.36h0c-.22.31-.22.69-.22,1.1-.04-.37-.05-.7-.09-1.06.13-.03.2-.01.31-.04m-.79,21.89c0,.55,0,1.01.25,1.44v.11c0,.06.03.11.03.17-.24-.56-.42-1.15-.66-1.47.18-.05.25-.17.38-.26m.23,6.5c.25-.11.5-.11.75-.15.01.03,0,.05.03.08,0,.23,0,.42.09.64-.24-.19-.5-.4-.87-.56m1.49,3.38s.04.01.08,0v.05s-.04-.04-.08-.05m.65,3.56l.5.03s.01.03.01.04c.1.43.23.77.46.98,0,.03.01.03.01.05-.71.13-1.35.17-.98-1.1m.98,1.93c.06-.01.13-.04.18-.05v.06l.13.11s.01.04.03.05c-.13-.04-.2-.14-.33-.18m5.85,12.46c-.5-.48-.48-.87-.27-1.2.01.01.03.03.03.04.2.4.41.71.6,1.01-.11.06-.23.08-.36.15m5.14,9.84c-.09-.75-2.21-1.76-2.74-2.23.82-1.12.31.51,1.25,0l.52-1.84c.17.15.32.11.47.11.04.04.06.1.1.14.98,1.3,1.96,2.46,3.01,3.56-.92.13-1.82.27-2.61.25m4.26,2.33c.2.05.37-.09.54-.31h.01c0,.09.04.13.06.17l-.61.14Z"/><path class="cls-1" d="m774.88,53.23c-.27.06-.55.14-.82.2-.79.2-1.59.38-2.37.61-1.19.37-2.33.82-3.49,1.26-1.12.43-2.24.93-3.35,1.44-5.27,2.5-10.06,5.83-14.17,9.9-.08.08-.17.15-.24.22-9.23,9.28-14.96,22.07-14.96,36.2,0,28.28,22.93,51.26,51.26,51.26,12.41,0,23.78-4.41,32.64-11.74.18-.15.33-.32.51-.47.22-.18.39-.37.61-.55.33-.28.66-.59.99-.91,1.17-1.08,2.3-2.23,3.35-3.42.27-.29.55-.57.79-.87.25-.29.52-.57.78-.87.97-1.2,1.89-2.42,2.75-3.69,1.01-1.5,1.94-3.03,2.79-4.63.08-.17.14-.33.23-.5,0,0,.03-.03.04-.04.11-.26.24-.54.37-.8,1.34-2.68,2.46-5.48,3.33-8.42.01-.1.04-.19.06-.29.05-.19.1-.37.15-.55.06-.28.14-.56.22-.84.41-1.64.77-3.34,1.02-5.05.01-.13.03-.24.05-.38.34-2.37.57-4.78.57-7.26,0-15.47-6.89-29.29-17.73-38.7-.1-.09-.19-.19-.29-.28-8.53-7.27-19.46-11.77-31.42-12.2-.62-.01-1.22-.08-1.84-.08-4.08,0-8.05.52-11.86,1.43"/><path class="cls-3" d="m1081.95,22.02c-15.3,0-28.97,4.78-40.42,14.72l-22.66-18.36v162.3h32.57v-95.59c0-8.49,2.87-15.6,8.89-21.63,6.01-6.02,13.16-8.91,21.63-8.91,3.93,0,7.56.62,10.95,1.84l14.88-29.24c-7.93-3.43-16.56-5.13-25.83-5.13"/><path class="cls-3" d="m909.38,22.42h-32.57v95.59c0,17.36,5.94,32.53,18.22,44.85,12.33,12.32,27.52,18.22,44.9,18.22,15.3,0,28.97-4.78,40.42-14.72l22.66,18.36V22.42h-32.57v95.59c0,8.48-2.87,15.6-8.89,21.63-6.01,6.02-13.15,8.9-21.63,8.9s-15.66-2.74-21.75-8.62c-6.18-6.02-8.8-13.38-8.8-21.91V22.42Z"/></g><g><path class="cls-3" d="m299.59,276.11h-5.29v-34.51h-13.28v-4.7h31.86v4.7h-13.28v34.51Z"/><path class="cls-3" d="m371.9,236.9l-14.69,32.99c-2.65,5.99-5.29,7.29-8.48,7.29-1.35,0-2.75-.22-3.83-.43v-4.37c.92.16,1.78.22,3.08.22,2,0,2.54-.59,4.32-3.78l-15.17-31.91h5.67l12.04,26.78,11.39-26.78h5.67Z"/><path class="cls-3" d="m403.6,276.11h-5.29v-39.2h17.66c7.24,0,11.61,4.7,11.61,11.02,0,5.45-3.13,11.66-11.61,11.66h-12.37v16.52Zm0-21.06h10.53c4.75,0,7.99-1.78,7.99-7.07,0-4.91-3.4-6.53-7.78-6.53h-10.75v13.61Z"/><path class="cls-3" d="m457.81,264.66l-4.1,11.45h-5.45l14.74-39.2h5.99l14.15,39.2h-5.78l-3.89-11.45h-15.66Zm13.77-4.64l-5.78-17.28h-.11l-6.26,17.28h12.15Z"/><path class="cls-3" d="m535.09,236.9v4.7h-20.36v34.51h-5.29v-39.2h25.65Z"/><path class="cls-3" d="m590.11,276.11h-28.94v-39.2h28.57v4.7h-23.27v11.5h21.44v4.7h-21.44v13.61h23.65v4.7Z"/><path class="cls-3" d="m623.7,253.1h20.47v-16.2h5.29v39.2h-5.29v-18.31h-20.47v18.31h-5.29v-39.2h5.29v16.2Z"/><path class="cls-3" d="m684.34,271.41h20.47v-34.51h5.29v34.51h3.46v13.18h-4.86v-8.48h-29.65v-39.2h5.29v34.51Z"/><path class="cls-3" d="m744.77,276.11h-5.29v-39.2h5.29v39.2Z"/><path class="cls-3" d="m803.57,276.11h-5.29v-16.79h-8.75l-10.48,16.79h-6.64l11.12-16.79c-4-.76-10.31-3.19-10.31-11.66s6.43-10.75,12.91-10.75h17.44v39.2Zm-5.29-34.67h-12.53c-2.65,0-7.07.49-7.07,6.53,0,5.51,4.59,6.8,8.48,6.8h11.12v-13.34Z"/></g></svg>